{"glyphs":{"0":{"ha":781,"x_min":25,"x_max":756,"o":"m 286 260 l 494 260 l 494 678 l 286 678 l 286 260 l 286 260 m 521 1017 l 521 938 l 756 938 l 756 0 l 25 0 l 25 938 l 260 938 l 260 1017 l 521 1017 l 521 1017 z "},"1":{"ha":386,"x_min":22,"x_max":361,"o":"m 126 939 q 217 920 175 939 q 292 869 260 901 q 342 795 324 838 q 361 704 361 753 l 361 0 l 100 0 l 100 261 l 100 626 q 94 658 100 647 q 77 672 88 668 q 52 677 67 676 q 22 678 38 678 l 22 939 l 126 939 z "},"2":{"ha":783,"x_min":26,"x_max":757,"o":"m 757 339 l 288 339 l 288 260 l 757 260 l 757 0 l 26 0 l 26 572 l 496 572 l 496 599 q 478 658 496 639 q 418 678 460 678 l 26 678 l 26 938 l 418 938 q 549 910 488 938 q 657 838 611 883 q 730 730 703 792 q 757 599 757 668 l 757 339 z "},"3":{"ha":853,"x_min":24,"x_max":832,"o":"m 753 678 l 753 599 l 832 599 l 832 339 l 753 339 q 726 208 753 269 q 653 100 699 146 q 545 27 607 54 q 414 0 483 0 l 24 0 l 24 260 l 414 260 q 474 278 454 260 q 493 339 494 297 l 179 339 l 179 574 l 493 574 l 493 678 l 24 678 l 24 939 l 832 939 l 832 678 l 753 678 z "},"4":{"ha":851,"x_min":24,"x_max":832,"o":"m 832 574 l 832 339 l 754 339 q 747 217 754 278 q 717 108 740 157 q 646 30 693 60 q 519 0 599 0 l 428 0 l 428 260 q 466 264 453 260 q 485 277 479 268 q 492 301 492 286 q 493 339 493 317 q 406 335 456 339 q 305 332 357 332 q 202 338 253 332 q 112 364 151 344 q 48 419 72 383 q 24 514 24 456 l 24 939 l 285 939 l 285 574 l 493 574 l 493 939 l 754 939 l 754 574 l 832 574 z "},"5":{"ha":854,"x_min":22,"x_max":831,"o":"m 831 339 q 803 208 831 269 q 731 100 776 146 q 623 27 685 54 q 492 0 561 0 l 100 0 l 100 261 l 492 261 q 536 269 521 261 q 559 290 551 276 q 568 322 567 303 q 569 365 569 342 l 100 365 l 100 678 l 22 678 l 22 939 l 831 939 l 831 678 l 361 678 l 361 600 l 831 600 l 831 339 z "},"6":{"ha":858,"x_min":22,"x_max":831,"o":"m 831 0 l 440 0 q 299 29 361 0 q 192 108 236 58 q 124 224 147 157 q 100 365 100 290 l 22 365 l 22 600 l 100 600 l 100 939 l 831 939 l 831 678 l 361 678 l 361 600 l 571 600 q 699 585 649 600 q 779 538 750 571 q 819 452 808 504 q 831 325 831 400 l 831 0 m 569 261 l 569 365 l 361 365 l 361 329 q 374 290 361 304 q 408 269 388 276 q 450 260 428 263 q 490 258 472 258 q 530 260 510 258 q 569 261 550 261 z "},"7":{"ha":815,"x_min":25,"x_max":800,"o":"m 669 939 q 762 901 724 939 q 800 810 800 864 q 782 743 800 775 l 349 0 l 25 0 l 421 678 l 286 678 l 286 626 l 25 626 l 25 939 l 669 939 z "},"8":{"ha":779,"x_min":24,"x_max":754,"o":"m 285 678 l 285 600 l 493 600 l 493 678 l 285 678 l 285 678 m 285 339 l 285 260 l 493 260 l 493 339 l 285 339 l 285 339 m 519 1017 l 519 939 l 754 939 l 754 0 l 24 0 l 24 939 l 258 939 l 258 1017 l 519 1017 l 519 1017 z "},"9":{"ha":853,"x_min":22,"x_max":831,"o":"m 831 574 l 831 339 l 753 339 l 753 0 l 492 0 l 492 339 q 405 335 454 339 q 303 332 356 332 q 201 338 251 332 q 110 364 150 344 q 47 419 71 383 q 22 514 22 456 l 22 939 l 753 939 l 753 574 l 831 574 m 492 574 l 492 678 l 283 678 l 283 574 l 492 574 z "},"\u0000":{"ha":0,"x_min":0,"x_max":0,"o":""},"\r":{"ha":651,"x_min":0,"x_max":0,"o":""}," ":{"ha":651,"x_min":0,"x_max":0,"o":""},"E":{"ha":861,"x_min":26,"x_max":835,"o":"m 104 339 l 26 339 l 26 599 l 104 599 l 104 678 l 26 678 l 26 938 l 835 938 l 835 678 l 365 678 l 365 574 l 678 574 l 678 339 l 365 339 q 443 260 364 260 l 835 260 l 835 0 l 443 0 q 312 27 374 0 q 204 100 250 54 q 131 208 158 146 q 104 339 104 269 z "},"F":{"ha":863,"x_min":26,"x_max":835,"o":"m 106 339 l 26 339 l 26 600 l 106 600 l 106 678 l 26 678 l 26 939 l 835 939 l 835 678 l 365 678 l 365 574 l 678 574 l 678 339 l 365 339 q 358 217 365 278 q 328 108 351 156 q 257 30 304 60 q 131 0 210 0 l 26 0 l 26 260 q 69 262 53 260 q 93 272 85 264 q 103 295 101 279 q 106 339 106 311 z "},"G":{"ha":861,"x_min":26,"x_max":835,"o":"m 835 574 l 835 0 l 600 0 q 407 39 497 0 q 249 145 317 78 q 143 303 182 213 q 104 496 104 393 l 104 653 l 26 653 l 26 939 l 835 939 l 835 626 l 574 626 l 574 678 l 365 678 l 365 496 q 381 411 365 451 q 425 340 397 371 q 491 288 453 308 q 574 263 529 268 l 574 339 l 496 339 l 496 574 l 835 574 z "},"H":{"ha":935,"x_min":25,"x_max":913,"o":"m 913 261 l 913 0 l 808 0 q 717 19 760 0 q 643 69 675 38 q 592 144 611 101 q 574 235 574 186 l 574 339 l 364 339 l 364 0 l 104 0 l 104 339 l 25 339 l 25 600 l 104 600 l 104 939 l 364 939 l 364 600 l 574 600 l 574 939 l 833 939 l 833 678 l 833 313 q 840 281 833 292 q 857 266 846 271 q 883 261 868 261 q 913 261 897 261 z "},"I":{"ha":396,"x_min":29,"x_max":368,"o":"m 368 939 l 368 235 q 349 144 368 186 q 299 69 331 101 q 224 19 267 38 q 133 0 182 0 l 29 0 l 29 261 q 59 262 44 261 q 84 267 74 263 q 101 281 94 271 q 107 313 107 292 l 107 678 l 107 939 l 368 939 z "},"J":{"ha":504,"x_min":32,"x_max":475,"o":"m 475 938 l 475 417 q 440 245 475 322 q 345 114 406 168 q 204 30 285 60 q 32 0 124 0 l 32 260 q 101 269 68 260 q 160 297 135 278 q 199 347 185 317 q 214 417 214 376 l 214 678 l 32 678 l 32 938 l 475 938 z "},"K":{"ha":786,"x_min":29,"x_max":760,"o":"m 760 939 q 685 829 728 893 q 605 694 643 765 q 540 553 567 624 q 514 424 514 482 q 537 340 514 371 q 595 290 560 308 q 674 267 631 272 q 760 261 718 261 l 760 0 q 616 13 686 0 q 485 54 546 25 q 374 131 424 83 q 290 249 324 178 l 290 0 l 29 0 l 29 939 l 290 939 l 290 626 q 359 788 317 710 q 447 939 401 865 l 760 939 z "},"L":{"ha":861,"x_min":26,"x_max":835,"o":"m 835 235 q 816 144 835 186 q 765 69 797 101 q 691 19 733 38 q 600 0 649 0 l 26 0 l 26 261 l 104 261 l 104 939 l 365 939 l 365 261 l 521 261 q 553 267 542 261 q 568 284 564 274 q 573 308 572 294 q 574 339 574 322 l 835 339 l 835 235 z "},"M":{"ha":1099,"x_min":28,"x_max":1071,"o":"m 1071 939 l 1071 678 l 993 678 l 993 313 q 999 281 993 292 q 1016 266 1006 271 q 1041 261 1026 261 q 1071 261 1056 261 l 1071 0 l 993 0 q 855 26 907 0 q 776 97 803 51 q 740 205 749 143 q 732 339 732 267 l 732 678 l 681 678 l 681 339 l 419 339 l 419 678 l 367 678 l 367 339 q 357 192 367 256 q 317 86 347 129 q 230 22 286 43 q 81 0 174 0 l 28 0 l 28 261 q 58 261 43 261 q 83 266 72 261 q 101 281 94 271 q 107 313 107 292 l 107 678 l 28 678 l 28 939 l 419 939 l 419 990 l 681 990 l 681 939 l 1071 939 z "},"O":{"ha":792,"x_min":32,"x_max":763,"o":"m 501 261 l 501 678 l 293 678 l 293 261 l 501 261 l 501 261 m 763 0 l 32 0 l 32 939 l 763 939 l 763 0 l 763 0 z "},"P":{"ha":863,"x_min":26,"x_max":835,"o":"m 835 574 q 813 462 835 506 q 753 392 790 418 q 668 354 717 365 q 567 340 619 343 q 463 338 515 336 q 365 339 410 339 l 365 0 l 104 0 l 104 339 l 26 339 l 26 600 l 104 600 l 104 678 l 26 678 l 26 939 l 835 939 l 835 574 m 574 574 l 574 678 l 365 678 l 365 574 l 574 574 z "},"Q":{"ha":789,"x_min":29,"x_max":758,"o":"m 499 261 l 499 678 l 290 678 l 290 261 l 499 261 l 499 261 m 758 0 l 525 0 l 525 -78 l 264 -78 l 264 0 l 29 0 l 29 939 l 758 939 l 758 0 l 758 0 z "},"R":{"ha":857,"x_min":24,"x_max":832,"o":"m 832 235 l 832 0 q 676 22 750 0 q 544 85 603 43 q 447 191 486 128 q 393 339 407 254 l 363 339 l 363 0 l 101 0 l 101 339 l 24 339 l 24 600 l 101 600 l 101 679 l 24 679 l 24 939 l 832 939 l 832 574 q 817 492 832 531 q 775 422 801 453 q 713 369 749 390 q 633 343 676 349 q 665 290 644 311 q 713 257 686 269 q 771 240 740 244 q 832 235 801 235 m 571 574 l 571 679 l 363 679 l 363 574 l 571 574 z "},"S":{"ha":779,"x_min":28,"x_max":758,"o":"m 28 339 l 28 600 q 55 731 28 669 q 128 839 82 793 q 235 912 174 885 q 367 939 297 939 l 758 939 l 758 679 l 497 679 q 415 683 453 679 q 349 680 376 686 q 305 651 321 674 q 289 574 289 628 l 758 574 l 758 339 q 731 208 758 269 q 658 100 704 146 q 551 27 613 54 q 419 0 489 0 l 28 0 l 28 261 l 367 261 q 414 260 390 261 q 456 266 438 260 q 486 289 475 272 q 497 339 497 306 l 28 339 z "},"T":{"ha":779,"x_min":25,"x_max":754,"o":"m 521 314 q 527 282 521 293 q 544 266 533 271 q 568 261 554 261 q 599 261 582 261 l 599 0 l 494 0 q 403 19 446 0 q 329 69 361 38 q 278 144 297 101 q 260 235 260 186 l 260 339 l 260 678 l 25 678 l 25 939 l 754 939 l 754 678 l 521 678 l 521 314 z "},"U":{"ha":864,"x_min":26,"x_max":835,"o":"m 835 0 l 600 0 q 407 39 497 0 q 249 145 317 78 q 143 303 182 213 q 104 496 104 393 l 104 651 l 26 651 l 26 939 l 365 939 l 365 678 q 365 546 365 615 q 383 417 365 476 q 443 315 400 357 q 574 263 486 272 l 574 939 l 835 939 l 835 0 z "},"V":{"ha":881,"x_min":7,"x_max":856,"o":"m 856 939 l 856 678 q 825 677 839 678 q 801 672 811 676 q 784 657 790 668 q 778 625 778 646 l 778 260 l 778 0 l 517 0 l 7 939 l 275 939 l 517 492 q 516 587 517 536 q 519 688 515 638 q 535 783 524 738 q 574 863 547 828 q 643 918 600 897 q 751 939 686 939 l 856 939 z "},"W":{"ha":1096,"x_min":28,"x_max":1071,"o":"m 1071 939 l 1071 678 q 1041 678 1056 678 q 1016 673 1026 678 q 999 658 1006 668 q 993 626 993 647 l 993 261 l 1071 261 l 1071 0 l 679 0 l 679 -53 l 418 -53 l 418 0 l 28 0 l 28 261 l 106 261 l 106 626 q 99 658 106 647 q 83 673 93 668 q 58 678 72 678 q 28 678 43 678 l 28 939 l 106 939 q 244 913 192 939 q 323 842 296 888 q 358 734 350 796 q 367 600 367 672 l 367 261 l 418 261 l 418 600 l 679 600 l 679 261 l 732 261 l 732 600 q 742 747 732 683 q 783 852 753 810 q 870 917 814 894 q 1018 939 926 939 l 1071 939 z "},"D":{"ha":860,"x_min":25,"x_max":833,"o":"m 833 339 q 806 208 833 269 q 733 100 779 146 q 626 27 688 54 q 494 0 564 0 l 410 0 l 410 261 q 465 259 436 261 q 517 263 493 257 q 557 285 542 268 q 572 339 572 301 l 572 678 l 364 678 l 364 0 l 103 0 l 103 678 l 25 678 l 25 939 l 833 939 l 833 339 z "},"X":{"ha":822,"x_min":28,"x_max":799,"o":"m 799 939 l 799 678 q 717 676 747 678 q 667 668 686 675 q 636 649 647 661 q 613 613 625 636 q 586 554 601 589 q 543 469 571 519 l 799 0 l 538 0 l 413 232 q 364 141 386 183 q 313 67 342 99 q 246 18 285 36 q 147 0 207 0 l 28 0 l 28 261 q 110 262 79 261 q 160 268 142 263 q 190 286 179 274 q 213 322 201 299 q 239 381 224 346 q 283 469 254 417 l 28 939 l 289 939 l 414 710 q 461 797 439 756 q 512 870 483 839 q 580 920 540 901 q 679 939 619 939 l 799 939 z "},"Y":{"ha":857,"x_min":25,"x_max":833,"o":"m 833 574 l 833 339 l 756 339 q 728 208 756 269 q 656 100 701 146 q 548 27 610 54 q 417 0 486 0 l 182 0 l 182 261 l 417 261 q 494 339 496 261 q 408 335 457 339 q 306 332 358 332 q 203 339 254 332 q 113 365 153 346 q 49 420 74 385 q 25 514 25 456 l 25 939 l 286 939 l 286 574 l 494 574 l 494 939 l 756 939 l 756 574 l 833 574 z "},"Z":{"ha":881,"x_min":24,"x_max":858,"o":"m 858 235 q 840 144 858 186 q 789 69 821 101 q 715 19 757 38 q 624 0 672 0 l 24 0 l 429 678 l 336 678 q 305 672 315 678 q 290 654 294 665 q 285 628 285 643 q 285 599 285 614 l 24 599 l 24 704 q 42 795 24 753 q 93 869 61 838 q 167 920 125 901 q 258 939 210 939 l 858 939 l 453 260 l 546 260 q 577 266 567 260 q 592 283 588 272 q 597 309 597 294 q 597 339 597 324 l 858 339 l 858 235 z "},"a":{"ha":940,"x_min":26,"x_max":914,"o":"m 340 938 l 340 990 l 601 990 l 601 938 l 914 938 l 914 678 l 835 678 l 835 313 q 841 281 835 292 q 858 265 847 269 q 883 260 869 260 q 914 260 897 260 l 914 0 l 810 0 q 683 31 729 0 q 612 109 636 61 q 581 217 588 157 q 575 339 575 278 l 367 339 l 367 233 q 348 142 367 185 q 297 68 329 100 q 222 18 265 36 q 132 0 179 0 l 26 0 l 26 260 q 57 260 43 260 q 82 265 71 260 q 99 281 93 269 q 106 313 106 292 l 106 678 l 26 678 l 26 938 l 340 938 m 575 599 l 575 678 l 367 678 l 367 599 l 575 599 z "},"c":{"ha":868,"x_min":26,"x_max":835,"o":"m 835 600 l 574 600 l 574 679 l 365 679 l 365 496 q 388 384 365 428 q 447 315 410 340 q 532 277 483 289 q 633 262 581 265 q 737 260 685 258 q 835 261 789 261 l 835 0 l 600 0 q 407 39 497 0 q 249 145 317 78 q 143 303 182 213 q 104 496 104 393 l 104 653 l 26 653 l 26 939 l 835 939 l 835 600 z "},"e":{"ha":861,"x_min":26,"x_max":835,"o":"m 104 339 l 26 339 l 26 599 l 104 599 l 104 678 l 26 678 l 26 938 l 835 938 l 835 678 l 365 678 l 365 574 l 678 574 l 678 339 l 365 339 q 443 260 364 260 l 835 260 l 835 0 l 443 0 q 312 27 374 0 q 204 100 250 54 q 131 208 158 146 q 104 339 104 269 z "},"f":{"ha":863,"x_min":26,"x_max":835,"o":"m 106 339 l 26 339 l 26 600 l 106 600 l 106 678 l 26 678 l 26 939 l 835 939 l 835 678 l 365 678 l 365 574 l 678 574 l 678 339 l 365 339 q 358 217 365 278 q 328 108 351 156 q 257 30 304 60 q 131 0 210 0 l 26 0 l 26 260 q 69 262 53 260 q 93 272 85 264 q 103 295 101 279 q 106 339 106 311 z "},"g":{"ha":861,"x_min":26,"x_max":835,"o":"m 835 574 l 835 0 l 600 0 q 407 39 497 0 q 249 145 317 78 q 143 303 182 213 q 104 496 104 393 l 104 653 l 26 653 l 26 939 l 835 939 l 835 626 l 574 626 l 574 678 l 365 678 l 365 496 q 381 411 365 451 q 425 340 397 371 q 491 288 453 308 q 574 263 529 268 l 574 339 l 496 339 l 496 574 l 835 574 z "},"h":{"ha":935,"x_min":25,"x_max":913,"o":"m 913 261 l 913 0 l 808 0 q 717 19 760 0 q 643 69 675 38 q 592 144 611 101 q 574 235 574 186 l 574 339 l 364 339 l 364 0 l 104 0 l 104 339 l 25 339 l 25 600 l 104 600 l 104 939 l 364 939 l 364 600 l 574 600 l 574 939 l 833 939 l 833 678 l 833 313 q 840 281 833 292 q 857 266 846 271 q 883 261 868 261 q 913 261 897 261 z "},"i":{"ha":396,"x_min":29,"x_max":368,"o":"m 368 939 l 368 235 q 349 144 368 186 q 299 69 331 101 q 224 19 267 38 q 133 0 182 0 l 29 0 l 29 261 q 59 262 44 261 q 84 267 74 263 q 101 281 94 271 q 107 313 107 292 l 107 678 l 107 939 l 368 939 z "},"j":{"ha":504,"x_min":32,"x_max":475,"o":"m 475 938 l 475 417 q 440 245 475 322 q 345 114 406 168 q 204 30 285 60 q 32 0 124 0 l 32 260 q 101 269 68 260 q 160 297 135 278 q 199 347 185 317 q 214 417 214 376 l 214 678 l 32 678 l 32 938 l 475 938 z "},"k":{"ha":786,"x_min":29,"x_max":760,"o":"m 760 939 q 685 829 728 893 q 605 694 643 765 q 540 553 567 624 q 514 424 514 482 q 537 340 514 371 q 595 290 560 308 q 674 267 631 272 q 760 261 718 261 l 760 0 q 616 13 686 0 q 485 54 546 25 q 374 131 424 83 q 290 249 324 178 l 290 0 l 29 0 l 29 939 l 290 939 l 290 626 q 359 788 317 710 q 447 939 401 865 l 760 939 z "},"l":{"ha":861,"x_min":26,"x_max":835,"o":"m 835 235 q 816 144 835 186 q 765 69 797 101 q 691 19 733 38 q 600 0 649 0 l 26 0 l 26 261 l 104 261 l 104 939 l 365 939 l 365 261 l 521 261 q 553 267 542 261 q 568 284 564 274 q 573 308 572 294 q 574 339 574 322 l 835 339 l 835 235 z "},"m":{"ha":1099,"x_min":28,"x_max":1071,"o":"m 1071 939 l 1071 678 l 993 678 l 993 313 q 999 281 993 292 q 1016 266 1006 271 q 1041 261 1026 261 q 1071 261 1056 261 l 1071 0 l 993 0 q 855 26 907 0 q 776 97 803 51 q 740 205 749 143 q 732 339 732 267 l 732 678 l 681 678 l 681 339 l 419 339 l 419 678 l 367 678 l 367 339 q 357 192 367 256 q 317 86 347 129 q 230 22 286 43 q 81 0 174 0 l 28 0 l 28 261 q 58 261 43 261 q 83 266 72 261 q 101 281 94 271 q 107 313 107 292 l 107 678 l 28 678 l 28 939 l 419 939 l 419 990 l 681 990 l 681 939 l 1071 939 z "},"o":{"ha":792,"x_min":32,"x_max":763,"o":"m 501 261 l 501 678 l 293 678 l 293 261 l 501 261 l 501 261 m 763 0 l 32 0 l 32 939 l 763 939 l 763 0 l 763 0 z "},"p":{"ha":863,"x_min":26,"x_max":835,"o":"m 835 574 q 813 462 835 506 q 753 392 790 418 q 668 354 717 365 q 567 340 619 343 q 463 338 515 336 q 365 339 410 339 l 365 0 l 104 0 l 104 339 l 26 339 l 26 600 l 104 600 l 104 678 l 26 678 l 26 939 l 835 939 l 835 574 m 574 574 l 574 678 l 365 678 l 365 574 l 574 574 z "},"q":{"ha":789,"x_min":29,"x_max":758,"o":"m 499 261 l 499 678 l 290 678 l 290 261 l 499 261 l 499 261 m 758 0 l 525 0 l 525 -78 l 264 -78 l 264 0 l 29 0 l 29 939 l 758 939 l 758 0 l 758 0 z "},"r":{"ha":857,"x_min":24,"x_max":832,"o":"m 832 235 l 832 0 q 676 22 750 0 q 544 85 603 43 q 447 191 486 128 q 393 339 407 254 l 363 339 l 363 0 l 101 0 l 101 339 l 24 339 l 24 600 l 101 600 l 101 679 l 24 679 l 24 939 l 832 939 l 832 574 q 817 492 832 531 q 775 422 801 453 q 713 369 749 390 q 633 343 676 349 q 665 290 644 311 q 713 257 686 269 q 771 240 740 244 q 832 235 801 235 m 571 574 l 571 679 l 363 679 l 363 574 l 571 574 z "},"s":{"ha":779,"x_min":28,"x_max":758,"o":"m 28 339 l 28 600 q 55 731 28 669 q 128 839 82 793 q 235 912 174 885 q 367 939 297 939 l 758 939 l 758 679 l 497 679 q 415 683 453 679 q 349 680 376 686 q 305 651 321 674 q 289 574 289 628 l 758 574 l 758 339 q 731 208 758 269 q 658 100 704 146 q 551 27 613 54 q 419 0 489 0 l 28 0 l 28 261 l 367 261 q 414 260 390 261 q 456 266 438 260 q 486 289 475 272 q 497 339 497 306 l 28 339 z "},"t":{"ha":779,"x_min":25,"x_max":754,"o":"m 521 314 q 527 282 521 293 q 544 266 533 271 q 568 261 554 261 q 599 261 582 261 l 599 0 l 494 0 q 403 19 446 0 q 329 69 361 38 q 278 144 297 101 q 260 235 260 186 l 260 339 l 260 678 l 25 678 l 25 939 l 754 939 l 754 678 l 521 678 l 521 314 z "},"u":{"ha":864,"x_min":26,"x_max":835,"o":"m 835 0 l 600 0 q 407 39 497 0 q 249 145 317 78 q 143 303 182 213 q 104 496 104 393 l 104 651 l 26 651 l 26 939 l 365 939 l 365 678 q 365 546 365 615 q 383 417 365 476 q 443 315 400 357 q 574 263 486 272 l 574 939 l 835 939 l 835 0 z "},"v":{"ha":881,"x_min":7,"x_max":856,"o":"m 856 939 l 856 678 q 825 677 839 678 q 801 672 811 676 q 784 657 790 668 q 778 625 778 646 l 778 260 l 778 0 l 517 0 l 7 939 l 275 939 l 517 492 q 516 587 517 536 q 519 688 515 638 q 535 783 524 738 q 574 863 547 828 q 643 918 600 897 q 751 939 686 939 l 856 939 z "},"w":{"ha":1096,"x_min":28,"x_max":1071,"o":"m 1071 939 l 1071 678 q 1041 678 1056 678 q 1016 673 1026 678 q 999 658 1006 668 q 993 626 993 647 l 993 261 l 1071 261 l 1071 0 l 679 0 l 679 -53 l 418 -53 l 418 0 l 28 0 l 28 261 l 106 261 l 106 626 q 99 658 106 647 q 83 673 93 668 q 58 678 72 678 q 28 678 43 678 l 28 939 l 106 939 q 244 913 192 939 q 323 842 296 888 q 358 734 350 796 q 367 600 367 672 l 367 261 l 418 261 l 418 600 l 679 600 l 679 261 l 732 261 l 732 600 q 742 747 732 683 q 783 852 753 810 q 870 917 814 894 q 1018 939 926 939 l 1071 939 z "},"x":{"ha":822,"x_min":28,"x_max":799,"o":"m 799 939 l 799 678 q 717 676 747 678 q 667 668 686 675 q 636 649 647 661 q 613 613 625 636 q 586 554 601 589 q 543 469 571 519 l 799 0 l 538 0 l 413 232 q 364 141 386 183 q 313 67 342 99 q 246 18 285 36 q 147 0 207 0 l 28 0 l 28 261 q 110 262 79 261 q 160 268 142 263 q 190 286 179 274 q 213 322 201 299 q 239 381 224 346 q 283 469 254 417 l 28 939 l 289 939 l 414 710 q 461 797 439 756 q 512 870 483 839 q 580 920 540 901 q 679 939 619 939 l 799 939 z "},"y":{"ha":857,"x_min":25,"x_max":833,"o":"m 833 574 l 833 339 l 756 339 q 728 208 756 269 q 656 100 701 146 q 548 27 610 54 q 417 0 486 0 l 182 0 l 182 261 l 417 261 q 494 339 496 261 q 408 335 457 339 q 306 332 358 332 q 203 339 254 332 q 113 365 153 346 q 49 420 74 385 q 25 514 25 456 l 25 939 l 286 939 l 286 574 l 494 574 l 494 939 l 756 939 l 756 574 l 833 574 z "},"z":{"ha":881,"x_min":24,"x_max":858,"o":"m 858 235 q 840 144 858 186 q 789 69 821 101 q 715 19 757 38 q 624 0 672 0 l 24 0 l 429 678 l 336 678 q 305 672 315 678 q 290 654 294 665 q 285 628 285 643 q 285 599 285 614 l 24 599 l 24 704 q 42 795 24 753 q 93 869 61 838 q 167 920 125 901 q 258 939 210 939 l 858 939 l 453 260 l 546 260 q 577 266 567 260 q 592 283 588 272 q 597 309 597 294 q 597 339 597 324 l 858 339 l 858 235 z "},"N":{"ha":883,"x_min":25,"x_max":860,"o":"m 860 261 l 860 0 l 756 0 q 665 19 707 0 q 590 69 622 38 q 540 144 558 101 q 521 235 521 186 l 521 339 l 521 678 q 383 643 431 668 q 314 576 336 618 q 289 475 292 535 q 286 339 286 415 l 286 0 l 25 0 l 25 939 l 286 939 l 286 889 q 409 928 349 917 q 538 939 469 939 l 782 939 l 782 313 q 788 281 782 292 q 805 267 794 271 q 830 262 815 263 q 860 261 844 261 z "},"n":{"ha":883,"x_min":25,"x_max":860,"o":"m 860 261 l 860 0 l 756 0 q 665 19 707 0 q 590 69 622 38 q 540 144 558 101 q 521 235 521 186 l 521 339 l 521 678 q 383 643 431 668 q 314 576 336 618 q 289 475 292 535 q 286 339 286 415 l 286 0 l 25 0 l 25 939 l 286 939 l 286 889 q 409 928 349 917 q 538 939 469 939 l 782 939 l 782 313 q 788 281 782 292 q 805 267 794 271 q 830 262 815 263 q 860 261 844 261 z "},".":{"ha":308,"x_min":24,"x_max":285,"o":"m 285 261 l 285 0 l 24 0 l 24 261 l 285 261 l 285 261 z "},",":{"ha":308,"x_min":24,"x_max":285,"o":"m 285 261 l 285 -103 l 24 -103 l 24 261 l 285 261 l 285 261 z "},";":{"ha":308,"x_min":24,"x_max":285,"o":"m 285 261 l 285 -103 l 24 -103 l 24 261 l 285 261 l 285 261 m 285 935 l 285 674 l 24 674 l 24 935 l 285 935 l 285 935 z "},":":{"ha":308,"x_min":24,"x_max":285,"o":"m 285 261 l 285 0 l 24 0 l 24 261 l 285 261 l 285 261 m 285 935 l 285 674 l 24 674 l 24 935 l 285 935 l 285 935 m 285 935 l 285 674 l 24 674 l 24 935 l 285 935 l 285 935 m 285 935 l 285 674 l 24 674 l 24 935 l 285 935 l 285 935 z "},"!":{"ha":379,"x_min":22,"x_max":361,"o":"m 361 939 l 361 678 q 331 677 344 678 q 306 672 317 676 q 290 657 296 668 q 283 625 283 646 l 283 339 l 22 339 l 22 704 q 41 795 22 753 q 92 869 60 838 q 166 920 124 901 q 257 939 208 939 l 361 939 m 283 261 l 283 0 l 22 0 l 22 261 l 283 261 z "},"?":{"ha":763,"x_min":17,"x_max":746,"o":"m 538 261 l 538 0 l 276 0 l 276 261 l 538 261 m 746 514 q 732 446 746 478 q 694 390 718 414 q 640 353 671 367 q 572 339 608 339 l 276 339 l 276 574 l 486 574 l 486 678 l 17 678 l 17 939 l 746 939 l 746 514 z "},"\"":{"ha":613,"x_min":24,"x_max":593,"o":"m 285 940 l 285 576 l 24 576 l 24 940 l 285 940 l 285 940 m 593 940 l 593 576 l 332 576 l 332 940 l 593 940 l 593 940 z "},"'":{"ha":314,"x_min":24,"x_max":285,"o":"m 285 940 l 285 576 l 24 576 l 24 940 l 285 940 l 285 940 z "},"/":{"ha":640,"x_min":19,"x_max":632,"o":"m 632 942 l 281 0 l 19 0 l 371 942 l 632 942 l 632 942 z "},"d":{"ha":860,"x_min":25,"x_max":833,"o":"m 833 339 q 806 208 833 269 q 733 100 779 146 q 626 27 688 54 q 494 0 564 0 l 410 0 l 410 261 q 465 259 436 261 q 517 263 493 257 q 557 285 542 268 q 572 339 572 301 l 572 678 l 364 678 l 364 0 l 103 0 l 103 678 l 25 678 l 25 939 l 833 939 l 833 339 z "},"b":{"ha":871,"x_min":32,"x_max":840,"o":"m 840 235 q 822 144 840 186 q 771 69 803 101 q 697 19 739 38 q 606 0 654 0 l 411 0 l 411 261 l 579 261 l 579 339 l 371 339 l 371 0 l 110 0 l 110 339 l 32 339 l 32 600 l 110 600 l 110 678 l 32 678 l 32 939 l 840 939 l 840 235 m 579 574 l 579 678 l 371 678 l 371 574 l 579 574 z "},"B":{"ha":871,"x_min":32,"x_max":840,"o":"m 840 235 q 822 144 840 186 q 771 69 803 101 q 697 19 739 38 q 606 0 654 0 l 411 0 l 411 261 l 579 261 l 579 339 l 371 339 l 371 0 l 110 0 l 110 339 l 32 339 l 32 600 l 110 600 l 110 678 l 32 678 l 32 939 l 840 939 l 840 235 m 579 574 l 579 678 l 371 678 l 371 574 l 579 574 z "},"C":{"ha":868,"x_min":26,"x_max":835,"o":"m 835 600 l 574 600 l 574 679 l 365 679 l 365 496 q 388 384 365 428 q 447 315 410 340 q 532 277 483 289 q 633 262 581 265 q 737 260 685 258 q 835 261 789 261 l 835 0 l 600 0 q 407 39 497 0 q 249 145 317 78 q 143 303 182 213 q 104 496 104 393 l 104 653 l 26 653 l 26 939 l 835 939 l 835 600 z "},"A":{"ha":940,"x_min":26,"x_max":914,"o":"m 340 938 l 340 990 l 601 990 l 601 938 l 914 938 l 914 678 l 835 678 l 835 313 q 841 281 835 292 q 858 265 847 269 q 883 260 869 260 q 914 260 897 260 l 914 0 l 810 0 q 683 31 729 0 q 612 109 636 61 q 581 217 588 157 q 575 339 575 278 l 367 339 l 367 233 q 348 142 367 185 q 297 68 329 100 q 222 18 265 36 q 132 0 179 0 l 26 0 l 26 260 q 57 260 43 260 q 82 265 71 260 q 99 281 93 269 q 106 313 106 292 l 106 678 l 26 678 l 26 938 l 340 938 m 575 599 l 575 678 l 367 678 l 367 599 l 575 599 z "}}}
